# xmcd CD database file
#
# Track frame offsets:
#	150
#	20014
#	37220
#	56881
#	71733
#	85065
#	108765
#	126177
#	139413
#	158776
#
# Disc length: 2274 seconds
#
# Revision: 0
# Processed by: cddbd v1.5.1PL0 Copyright (c) Steve Scherf et al.
# Submitted via: CDex 1.51
#
DISCID=9008e00a
DTITLE=Various Artist - Pure Dinner Jazz Moods [CD3]
DYEAR=2004
DGENRE=Jazz
TTITLE0=George Michael - Kissing A Fool
TTITLE1=Bobby McFerrin - Don't Worry, Be Happy
TTITLE2=Peggy Lee - Is That All There Is
TTITLE3=Commodores - Three Times A Lady
TTITLE4=Edith Piaf - La Vie En Rose
TTITLE5=Sade - No Ordinary Love
TTITLE6=Shola Ama - You Might Need Somebody
TTITLE7=Frank Sinatra - Baby Wont You Please Come Home
TTITLE8=Simply Red - For Your Babies
TTITLE9=Nancy Sinatra and Frank Sinatra - Somethin' Stupid
EXTD=YEAR: 2004
EXTT0=
EXTT1=
EXTT2=
EXTT3=
EXTT4=
EXTT5=
EXTT6=
EXTT7=
EXTT8=
EXTT9=
PLAYORDER=
